# xmcd CD database file
#
# Track frame offsets:
#	150
#	16897
#	45466
#	62840
#	83309
#	97559
#	114086
#	128847
#	161745
#	182994
#	214103
#	234637
#
# Disc length: 3403 seconds
#
# Revision: 1
# Processed by: cddbd v1.5.2PL0 Copyright (c) Steve Scherf et al.
# Submitted via: CDex 1.51
#
DISCID=8a0d490c
DTITLE=Lucky Peterson - What Have I Done Wrong - Best of JSP Studio Sessions
DYEAR=2017
DGENRE=Blues
TTITLE0=After The Dance
TTITLE1=Feat.Andy Aledort_Til' My Dyin' Day
TTITLE2=Age Ain't Nothing But A Number
TTITLE3=Feat.James Peterson_Strange Things Happen Every Day
TTITLE4=Feat.Tamara Peterson_Lost The Right
TTITLE5=What Have I Done Wrong
TTITLE6=Never Coming Back
TTITLE7=Feat.Bernard Allison, Larry McCray and Carl Weathersby_Where's Lucky
TTITLE8=Feat.Tamara Peterson and The Lucky Peterson Band_Have You Ever (CVould Have Been You)
TTITLE9=From Me
TTITLE10=Feat.Tamara Peterson_Back To Sing The Blues
TTITLE11=I'm A Lucky Man
EXTD=YEAR: 2017
EXTT0=
EXTT1=
EXTT2=
EXTT3=
EXTT4=
EXTT5=
EXTT6=
EXTT7=
EXTT8=
EXTT9=
EXTT10=
EXTT11=
PLAYORDER=
